PathFileType	4	(X/Y/Z)	Kaydara	
DataRate	CameraRate	NumFrames	NumMarkers	Units	OrigDataRate	OrigDataStartFrame	OrigNumFrames	
60.00	60.00	4	74	mm	60.00	238	140	
Frame#	Time	Z_lasi			Z_rasi			Z_rpsi			Z_lpsi			Z_fneck			Z_fhead			Z_rhead			Z_lhead			Z_rshld			Z_relbtop			Z_relblow			Z_rwrext			Z_rwrtop			Z_rwrlow			Z_lshld			Z_lelbext			Z_lelblow			Z_lelbtop			Z_lwrext			Z_lwrtop			Z_lwrlow			Z_rtopleg			Z_ltopleg			Z_rkneefr			Z_rkneebk			Z_rkneeis			Z_lkneefr			Z_lknssbk			Z_lkneeis			Z_rankfr			Z_rankis			Z_rankbk			Z_lankfr			Z_lankbk			Z_lankis			N_lasi			N_rasi			N_rpsi			N_lpsi			N_fneck			N_bneck			N_fhead			N_rhead			N_lhead			N_rshld			N_relbtop			N_relbext			N_relblow			N_rwrext			N_rwrtop			N_rwrlow			N_lshld			N_lelbext			N_lelblow			N_lelbtop			N_lwrext			N_lwrtop			N_lwrlow			N_rtopleg			N_rkneefr			N_rkneebk			N_rkneeis			N_lkneefr			N_lknssbk			N_lkneeis			N_rankfr			N_rankis			N_rankbk			N_lankfr			N_lankbk			N_lankis			Z_relbext			Z_bneck			N_ltopleg			
		X1	Y1	Z1	X2	Y2	Z2	X3	Y3	Z3	X4	Y4	Z4	X5	Y5	Z5	X6	Y6	Z6	X7	Y7	Z7	X8	Y8	Z8	X9	Y9	Z9	X10	Y10	Z10	X11	Y11	Z11	X12	Y12	Z12	X13	Y13	Z13	X14	Y14	Z14	X15	Y15	Z15	X16	Y16	Z16	X17	Y17	Z17	X18	Y18	Z18	X19	Y19	Z19	X20	Y20	Z20	X21	Y21	Z21	X22	Y22	Z22	X23	Y23	Z23	X24	Y24	Z24	X25	Y25	Z25	X26	Y26	Z26	X27	Y27	Z27	X28	Y28	Z28	X29	Y29	Z29	X30	Y30	Z30	X31	Y31	Z31	X32	Y32	Z32	X33	Y33	Z33	X34	Y34	Z34	X35	Y35	Z35	X36	Y36	Z36	X37	Y37	Z37	X38	Y38	Z38	X39	Y39	Z39	X40	Y40	Z40	X41	Y41	Z41	X42	Y42	Z42	X43	Y43	Z43	X44	Y44	Z44	X45	Y45	Z45	X46	Y46	Z46	X47	Y47	Z47	X48	Y48	Z48	X49	Y49	Z49	X50	Y50	Z50	X51	Y51	Z51	X52	Y52	Z52	X53	Y53	Z53	X54	Y54	Z54	X55	Y55	Z55	X56	Y56	Z56	X57	Y57	Z57	X58	Y58	Z58	X59	Y59	Z59	X60	Y60	Z60	X61	Y61	Z61	X62	Y62	Z62	X63	Y63	Z63	X64	Y64	Z64	X65	Y65	Z65	X66	Y66	Z66	X67	Y67	Z67	X68	Y68	Z68	X69	Y69	Z69	X70	Y70	Z70	X71	Y71	Z71	X72	Y72	Z72	X73	Y73	Z73	X74	Y74	Z74	

18	3.950	-1625.52185	1009.95255	967.30789	-1485.33264	987.28409	789.93759	-1306.68747	1059.24026	949.05861	-1480.31204	1083.88931	1109.38011	-1492.08694	1448.22800	744.62357	-1473.14926	1649.52011	601.05526	-1379.84222	1655.03906	752.76688	-1534.67606	1681.65741	756.79123	-1305.59677	1389.84650	690.29388	-1273.99544	1118.35182	578.21720	-1327.48413	1157.43851	546.85715	-1376.78604	977.71202	376.12309	-1365.32593	1019.31839	345.57804	-1405.56000	1042.69051	349.45232	-1628.35907	1489.94232	963.15491	-1675.84518	1136.02898	1078.87169	-1670.94086	1194.03763	1024.03214	-1697.24426	1233.86482	1089.45396	-1800.43945	998.24745	1104.04663	-1834.66537	1010.74715	1066.06598	-1804.92844	995.34424	1029.55406	-1322.07092	877.94220	802.63321	-1611.06216	899.54201	1104.34235	-1431.05927	451.74141	718.29933	-1343.33633	482.07420	793.92738	-1445.87967	444.46568	833.14316	-1574.53430	432.23495	1066.14449	-1561.13861	484.52381	1159.76128	-1469.29382	458.96008	1083.97072	-1371.36780	152.23109	724.80278	-1386.68259	147.29608	796.28029	-1314.91272	152.47055	760.95528	-1523.92715	144.60487	1211.60896	-1428.02658	162.37501	1222.17308	-1471.12396	143.63424	1164.37775	-1393.07434	999.09637	-429.80122	-1628.58582	1008.92990	-395.36892	-1625.14267	1080.60432	-589.54304	-1435.58899	1055.98167	-619.55349	-1471.99585	1464.59671	-376.26717	-1502.28134	1524.50394	-477.54234	-1493.58536	1628.43658	-271.71530	-1559.01871	1641.73523	-451.87313	-1428.60199	1636.14517	-448.85460	-1695.97015	1405.93216	-354.30359	-1724.27429	1142.81029	-228.94547	-1693.05450	1094.03229	-269.78474	-1655.56152	1161.41388	-217.49210	-1606.56662	983.77670	-42.16254	-1622.78946	1012.00615	-9.15822	-1588.97446	1045.58350	-13.41825	-1308.48923	1416.58463	-543.58540	-1349.40857	1109.04800	-599.60884	-1263.32825	1135.43320	-587.02805	-1300.65674	1107.63603	-655.91713	-1234.78432	909.95224	-558.24768	-1218.26187	926.57036	-522.96158	-1257.87781	927.91145	-499.88605	-1696.22711	901.45851	-499.76322	-1620.28320	423.89992	-457.50740	-1664.04099	455.20153	-530.85537	-1546.67831	445.97881	-519.21356	-1362.79907	456.23974	-321.69838	-1326.25900	469.35894	-400.78850	-1447.07794	468.25359	-388.19862	-1611.65314	168.09071	-513.24871	-1550.77728	168.57248	-567.78725	-1619.95880	162.13495	-590.43873	-1367.87460	189.52297	-417.06875	-1431.38855	192.06324	-437.32567	-1423.09448	198.17062	-363.08796	-1338.73688	1094.86801	617.56401	-1553.20068	1529.32739	848.83553	-1344.64859	938.02963	-517.07615 
19	3.967	-1623.49091	1012.36404	960.96619	-1484.69833	986.59485	782.99515	-1304.69513	1060.40733	939.79401	-1477.05887	1087.38113	1101.10046	-1490.04730	1446.70822	730.74150	-1471.08002	1646.35223	585.00263	-1377.08679	1653.52066	735.95566	-1531.76956	1680.29419	740.65178	-1305.22125	1387.91367	674.77654	-1276.93138	1116.39282	561.27270	-1330.36194	1156.68045	530.95135	-1383.19305	979.87877	358.32687	-1371.11221	1021.74652	328.38921	-1410.81284	1045.70679	332.40349	-1624.69406	1491.69830	949.87198	-1671.42853	1138.94859	1070.57030	-1666.92032	1196.62491	1015.77309	-1692.43134	1237.11693	1081.11038	-1789.36905	999.27917	1109.80164	-1824.90509	1008.95119	1072.36046	-1796.16241	992.68784	1035.62172	-1321.51001	877.67075	795.71213	-1608.28323	902.60788	1098.77914	-1432.31064	451.12373	714.70009	-1343.99796	482.16278	789.28406	-1446.24741	445.38055	829.95720	-1575.02289	434.73457	1063.06686	-1560.76645	487.77634	1156.42807	-1469.93835	460.75909	1079.98856	-1371.92902	151.86336	724.04831	-1386.51215	147.42308	795.71022	-1315.07202	152.44833	759.73495	-1525.13153	147.83852	1209.71092	-1429.13849	165.21257	1219.53331	-1472.63687	146.11918	1162.89139	-1394.12720	998.17390	-430.09209	-1628.56461	1008.63152	-391.68175	-1628.85803	1080.44556	-585.61005	-1440.04410	1055.39757	-619.01146	-1472.68082	1463.81622	-373.32977	-1504.22089	1523.86078	-474.04228	-1493.77472	1627.90955	-268.57264	-1560.49652	1640.87555	-448.18817	-1429.99527	1635.51285	-445.99972	-1694.42566	1405.58426	-346.63635	-1715.27527	1145.78369	-214.06734	-1683.40027	1095.68863	-253.45503	-1646.97983	1165.68336	-203.67046	-1595.33875	991.16272	-24.89145	-1612.82379	1019.28864	7.63237	-1579.98734	1053.73131	3.67907	-1311.76727	1416.36200	-544.27601	-1354.45602	1108.75793	-597.70729	-1268.19443	1134.68567	-585.70515	-1305.81909	1105.85289	-654.18587	-1241.04286	910.08034	-551.66718	-1224.03610	927.49359	-517.20581	-1263.63876	929.80713	-493.73585	-1698.83865	900.82497	-495.10933	-1621.15631	423.33023	-453.96088	-1665.42419	454.67781	-527.06318	-1547.82562	445.77389	-516.25286	-1365.61859	455.57030	-321.35902	-1331.14105	467.70607	-401.46530	-1451.29868	468.71979	-385.54512	-1611.56830	167.52506	-512.20314	-1550.99319	168.73747	-566.62231	-1620.30960	162.27745	-589.14925	-1377.76031	188.70613	-415.13821	-1442.23572	192.33555	-432.73117	-1431.26999	198.43960	-359.01932	-1342.92068	1093.36685	601.12934	-1551.16104	1527.80762	834.95346	-1347.05750	937.38892	-518.63518 
20	3.983	-1621.21994	1014.49150	954.81232	-1483.92731	985.96107	776.23192	-1302.39349	1061.63490	931.02058	-1473.87680	1090.83275	1092.89886	-1488.33557	1445.02777	717.07123	-1469.29993	1643.12622	569.17217	-1374.39468	1651.43066	719.65958	-1529.09393	1678.72437	724.68239	-1305.22934	1385.61737	659.32747	-1280.22217	1114.86794	544.29783	-1333.58551	1155.77744	515.07225	-1389.32785	981.27197	341.07525	-1376.12122	1023.13072	311.37058	-1415.51025	1047.81036	315.52002	-1621.13434	1493.27637	936.78520	-1666.72318	1141.44417	1062.92076	-1662.23801	1198.21114	1008.52684	-1687.70294	1240.52170	1073.05733	-1778.07144	1001.39427	1115.17082	-1815.34943	1008.62129	1078.68980	-1787.46521	991.14799	1041.73874	-1320.96375	877.51518	788.75130	-1605.56274	905.84702	1093.55194	-1433.24707	450.75394	711.23779	-1344.21082	482.47128	785.01854	-1445.90088	445.78259	826.82930	-1576.11603	437.50126	1060.37872	-1560.21439	490.87627	1152.90588	-1469.92844	463.05004	1075.79727	-1372.46368	151.44955	723.29353	-1386.53809	147.77145	794.99008	-1315.37231	152.49049	758.49792	-1526.19064	150.77299	1207.67143	-1429.84818	168.07772	1216.73141	-1474.06067	148.60042	1160.52711	-1395.11475	997.22977	-430.25688	-1628.46390	1008.20854	-388.10925	-1632.26013	1080.10727	-581.59985	-1444.21783	1055.01740	-618.14342	-1472.84851	1462.98721	-370.08915	-1505.91568	1523.42941	-469.76650	-1493.54370	1627.29614	-264.92062	-1561.45981	1639.87686	-444.02580	-1431.31241	1634.67743	-442.92698	-1692.55447	1405.49957	-339.09424	-1705.99594	1149.29199	-199.67169	-1673.37128	1099.09821	-238.22386	-1637.99377	1170.18639	-190.41073	-1584.55673	998.08426	-8.80608	-1602.72827	1026.01715	23.25339	-1570.49423	1061.07719	19.42445	-1314.27536	1416.23718	-544.01150	-1358.70056	1108.57506	-595.87849	-1272.42264	1134.12323	-584.37138	-1310.28244	1104.44023	-652.48055	-1246.50131	910.42030	-545.97172	-1229.25941	928.55598	-511.83407	-1268.71544	931.56975	-488.26351	-1701.03668	900.17754	-490.49168	-1621.75674	422.39986	-450.12341	-1666.76208	454.16142	-522.54536	-1549.07745	445.38506	-512.64847	-1368.10074	454.56238	-321.66866	-1336.29242	465.99350	-402.96337	-1456.31546	469.15222	-382.25708	-1611.46942	166.92593	-510.86403	-1551.13861	168.68446	-565.28877	-1620.67520	162.49685	-587.65106	-1388.03986	187.83577	-414.30931	-1453.34167	192.40112	-428.97678	-1439.30664	198.45865	-355.81764	-1347.45438	1092.01012	584.69273	-1549.44931	1526.12717	821.28311	-1349.87015	936.27518	-519.06746 
21	4.000	-1618.66043	1016.35414	949.01131	-1483.13690	985.26344	769.39270	-1300.40207	1062.62276	922.50862	-1470.47241	1094.21600	1084.75723	-1486.76712	1443.25760	703.58017	-1467.69318	1639.73526	553.43372	-1372.07413	1649.03183	703.53752	-1526.75369	1676.98990	708.97964	-1305.33218	1383.29254	644.24683	-1284.18549	1112.98164	527.97268	-1336.95587	1154.73969	499.62070	-1395.71686	981.40526	325.07519	-1380.76752	1023.65326	294.95598	-1419.67239	1048.98949	299.05432	-1617.59735	1494.75281	923.83812	-1662.13226	1144.11743	1055.68130	-1657.93854	1200.16808	1001.74339	-1682.82043	1243.91151	1065.36209	-1767.24777	1004.59015	1120.07523	-1805.79315	1009.51187	1084.66423	-1778.82874	990.77225	1047.55501	-1320.33600	877.22466	781.81221	-1603.02734	909.23714	1088.47580	-1434.06708	450.20844	708.51128	-1344.60052	482.52602	781.02448	-1445.83206	446.34251	824.06670	-1576.76727	440.01804	1057.47375	-1559.80804	494.02035	1149.56688	-1470.28870	465.19707	1071.91467	-1372.80731	151.03580	722.58949	-1386.46255	147.96530	794.36630	-1315.59097	152.53768	757.52914	-1527.44110	153.73935	1205.67497	-1431.02173	170.56601	1214.03160	-1475.67444	151.10991	1158.37685	-1395.87402	996.21841	-430.22690	-1628.63312	1007.72148	-384.26666	-1635.14374	1079.77226	-577.51469	-1447.90634	1054.63066	-616.93691	-1472.72003	1462.07993	-366.14815	-1506.85379	1522.62909	-465.40874	-1493.17078	1626.44669	-260.82863	-1561.98410	1638.61191	-439.56654	-1431.98410	1633.58002	-439.35562	-1690.25742	1405.57587	-331.39565	-1696.78207	1153.07686	-186.08803	-1663.34702	1103.13332	-224.41128	-1628.94150	1174.65866	-177.84740	-1573.75656	1004.43031	5.84445	-1592.70660	1032.18483	37.80819	-1561.00082	1067.80632	34.05606	-1316.30768	1416.22879	-542.75906	-1362.18994	1108.59474	-593.91659	-1275.80467	1133.63945	-582.98401	-1314.03320	1103.25569	-650.58662	-1251.19400	910.79659	-540.76286	-1233.74687	929.52507	-507.03960	-1273.01445	933.06976	-483.54412	-1702.60956	899.53461	-485.71281	-1622.50336	421.76872	-445.90771	-1667.69867	453.65459	-518.04039	-1550.00977	445.05199	-508.91338	-1370.38223	453.15048	-322.63321	-1341.71631	464.40659	-405.14820	-1461.09222	469.33475	-379.00978	-1611.33896	166.27888	-509.57829	-1551.90155	168.53552	-563.28514	-1620.88364	162.71206	-586.03359	-1399.01627	186.99137	-414.16008	-1464.69864	192.52043	-425.88165	-1447.14081	198.17209	-353.56483	-1352.39822	1090.40550	568.79482	-1547.88086	1524.35699	807.79205	-1352.71683	934.97368	-519.40044 
